<mxfile host="app.diagrams.net" modified="2023-11-06T17:42:06.111Z" agent="Mozilla/5.0 (X11; Linux x86_64) AppleWebKit/537.36 (KHTML, like Gecko) Chrome/110.0.0.0 YaBrowser/23.3.3.764 Yowser/2.5 Safari/537.36" etag="ZGGedVcoVj7QQxvyJpzk" version="22.0.8" type="github">
  <diagram id="R2lEEEUBdFMjLlhIrx00" name="Page-1">
    <mxGraphModel dx="925" dy="492" grid="1" gridSize="10" guides="1" tooltips="1" connect="1" arrows="1" fold="1" page="1" pageScale="1" pageWidth="850" pageHeight="1100" math="0" shadow="0" extFonts="Permanent Marker^https://fonts.googleapis.com/css?family=Permanent+Marker">
      <root>
        <mxCell id="0" />
        <mxCell id="1" parent="0" />
        <mxCell id="a7rIT60RLgpUhXY1kcIQ-16" value="" style="edgeStyle=orthogonalEdgeStyle;rounded=0;orthogonalLoop=1;jettySize=auto;html=1;" edge="1" parent="1" source="a7rIT60RLgpUhXY1kcIQ-1" target="a7rIT60RLgpUhXY1kcIQ-2">
          <mxGeometry relative="1" as="geometry" />
        </mxCell>
        <mxCell id="a7rIT60RLgpUhXY1kcIQ-1" value="Пользователь делает запрос API URL адреса" style="rounded=0;whiteSpace=wrap;html=1;" vertex="1" parent="1">
          <mxGeometry x="80" y="30" width="340" height="20" as="geometry" />
        </mxCell>
        <mxCell id="a7rIT60RLgpUhXY1kcIQ-2" value="Получает запрос и отправляет его на сервер приложений" style="rounded=0;whiteSpace=wrap;html=1;" vertex="1" parent="1">
          <mxGeometry x="80" y="70" width="340" height="20" as="geometry" />
        </mxCell>
        <mxCell id="a7rIT60RLgpUhXY1kcIQ-19" style="edgeStyle=orthogonalEdgeStyle;rounded=0;orthogonalLoop=1;jettySize=auto;html=1;exitX=0.5;exitY=1;exitDx=0;exitDy=0;entryX=0.5;entryY=0;entryDx=0;entryDy=0;" edge="1" parent="1" source="a7rIT60RLgpUhXY1kcIQ-4" target="a7rIT60RLgpUhXY1kcIQ-5">
          <mxGeometry relative="1" as="geometry" />
        </mxCell>
        <mxCell id="a7rIT60RLgpUhXY1kcIQ-4" value="Создает экземпляр Django приложения и пересылает ему запрос" style="rounded=0;whiteSpace=wrap;html=1;" vertex="1" parent="1">
          <mxGeometry x="80" y="120" width="340" height="40" as="geometry" />
        </mxCell>
        <mxCell id="a7rIT60RLgpUhXY1kcIQ-5" value="Обрабатывает запрос через middleware" style="rounded=0;whiteSpace=wrap;html=1;" vertex="1" parent="1">
          <mxGeometry x="77.5" y="180" width="340" height="20" as="geometry" />
        </mxCell>
        <mxCell id="a7rIT60RLgpUhXY1kcIQ-40" style="edgeStyle=orthogonalEdgeStyle;rounded=0;orthogonalLoop=1;jettySize=auto;html=1;entryX=1;entryY=0.25;entryDx=0;entryDy=0;" edge="1" parent="1" source="a7rIT60RLgpUhXY1kcIQ-8" target="a7rIT60RLgpUhXY1kcIQ-10">
          <mxGeometry relative="1" as="geometry" />
        </mxCell>
        <mxCell id="a7rIT60RLgpUhXY1kcIQ-8" value="Выполняет поиск подходящего представления внутри urlpatterns и вызывает его метод dispatch()" style="rounded=0;whiteSpace=wrap;html=1;" vertex="1" parent="1">
          <mxGeometry x="77.5" y="220" width="340" height="30" as="geometry" />
        </mxCell>
        <mxCell id="a7rIT60RLgpUhXY1kcIQ-10" value="dispatch() запускает:" style="rounded=0;whiteSpace=wrap;html=1;" vertex="1" parent="1">
          <mxGeometry x="77.5" y="270" width="120" height="20" as="geometry" />
        </mxCell>
        <mxCell id="a7rIT60RLgpUhXY1kcIQ-12" value="Преобразует Http-request в DRF-Request" style="rounded=0;whiteSpace=wrap;html=1;" vertex="1" parent="1">
          <mxGeometry x="160" y="310" width="260" height="20" as="geometry" />
        </mxCell>
        <mxCell id="a7rIT60RLgpUhXY1kcIQ-13" value="Проверяет подлинность пользователя с помощью функции perform_authentication()" style="rounded=0;whiteSpace=wrap;html=1;" vertex="1" parent="1">
          <mxGeometry x="160" y="350" width="260" height="30" as="geometry" />
        </mxCell>
        <mxCell id="a7rIT60RLgpUhXY1kcIQ-14" value="Проверяет, есть ли у пользователя разрешение на выполнение запроса&lt;br&gt;check_permissions()" style="rounded=0;whiteSpace=wrap;html=1;" vertex="1" parent="1">
          <mxGeometry x="160" y="400" width="260" height="40" as="geometry" />
        </mxCell>
        <mxCell id="a7rIT60RLgpUhXY1kcIQ-23" value="Ищет подходящий обработчик для метода запроса и выполняет его&lt;br&gt;В свою очередь обработчик запускает:" style="rounded=0;whiteSpace=wrap;html=1;" vertex="1" parent="1">
          <mxGeometry x="160" y="460" width="260" height="40" as="geometry" />
        </mxCell>
        <mxCell id="a7rIT60RLgpUhXY1kcIQ-24" value="Вызывает get_queryset() и / или get_object() для извлечения запрошенных объектов модели" style="rounded=0;whiteSpace=wrap;html=1;" vertex="1" parent="1">
          <mxGeometry x="190" y="520" width="230" height="40" as="geometry" />
        </mxCell>
        <mxCell id="a7rIT60RLgpUhXY1kcIQ-25" value="Создает объект&amp;nbsp; ModelSerializer и передает ему данные запроса и / или объект модели" style="rounded=0;whiteSpace=wrap;html=1;" vertex="1" parent="1">
          <mxGeometry x="190" y="570" width="230" height="40" as="geometry" />
        </mxCell>
        <mxCell id="a7rIT60RLgpUhXY1kcIQ-26" value="Вызывается is_valid(raise_exception=True) в сериализаторе, is_valid() запускает:" style="rounded=0;whiteSpace=wrap;html=1;" vertex="1" parent="1">
          <mxGeometry x="190" y="620" width="230" height="50" as="geometry" />
        </mxCell>
        <mxCell id="a7rIT60RLgpUhXY1kcIQ-27" value="Преобразует необработанные данные в типы данных Python с помощью to_internal_value(), выполняет проверку модели и конкретного поля" style="rounded=0;whiteSpace=wrap;html=1;" vertex="1" parent="1">
          <mxGeometry x="197.5" y="690" width="275" height="50" as="geometry" />
        </mxCell>
        <mxCell id="a7rIT60RLgpUhXY1kcIQ-29" value="Запускает пользовательскую проверку с помощью validate_field_name() и validate()" style="rounded=0;whiteSpace=wrap;html=1;" vertex="1" parent="1">
          <mxGeometry x="212.5" y="760" width="260" height="30" as="geometry" />
        </mxCell>
        <mxCell id="a7rIT60RLgpUhXY1kcIQ-30" value="Вызывает perform_create(), perform_update(), perform_destroy()" style="rounded=0;whiteSpace=wrap;html=1;" vertex="1" parent="1">
          <mxGeometry x="212.5" y="810" width="260" height="30" as="geometry" />
        </mxCell>
        <mxCell id="a7rIT60RLgpUhXY1kcIQ-31" value="Создает экземпляр DRF Response" style="rounded=0;whiteSpace=wrap;html=1;" vertex="1" parent="1">
          <mxGeometry x="212.5" y="860" width="260" height="30" as="geometry" />
        </mxCell>
        <mxCell id="a7rIT60RLgpUhXY1kcIQ-32" value="Сериализует объект модели, обращаясь к свойству .data в сериализаторе.&amp;nbsp;&lt;br&gt;.data запускает:" style="rounded=0;whiteSpace=wrap;html=1;" vertex="1" parent="1">
          <mxGeometry x="212.5" y="970" width="260" height="50" as="geometry" />
        </mxCell>
        <mxCell id="a7rIT60RLgpUhXY1kcIQ-33" value="Вызывает to_representation() и присваивает возвращаемое значение .data" style="rounded=0;whiteSpace=wrap;html=1;" vertex="1" parent="1">
          <mxGeometry x="212.5" y="910" width="260" height="40" as="geometry" />
        </mxCell>
        <mxCell id="a7rIT60RLgpUhXY1kcIQ-34" value="Возвращает ответ от метода обработчика в Django приложение" style="rounded=0;whiteSpace=wrap;html=1;" vertex="1" parent="1">
          <mxGeometry x="212.5" y="1040" width="260" height="40" as="geometry" />
        </mxCell>
        <mxCell id="a7rIT60RLgpUhXY1kcIQ-38" value="" style="endArrow=classic;html=1;rounded=0;exitX=0.5;exitY=1;exitDx=0;exitDy=0;entryX=0.5;entryY=0;entryDx=0;entryDy=0;" edge="1" parent="1" source="a7rIT60RLgpUhXY1kcIQ-2" target="a7rIT60RLgpUhXY1kcIQ-4">
          <mxGeometry width="50" height="50" relative="1" as="geometry">
            <mxPoint x="400" y="230" as="sourcePoint" />
            <mxPoint x="450" y="180" as="targetPoint" />
          </mxGeometry>
        </mxCell>
        <mxCell id="a7rIT60RLgpUhXY1kcIQ-39" value="" style="edgeStyle=orthogonalEdgeStyle;rounded=0;orthogonalLoop=1;jettySize=auto;html=1;" edge="1" parent="1">
          <mxGeometry relative="1" as="geometry">
            <mxPoint x="247.06" y="200" as="sourcePoint" />
            <mxPoint x="247.06" y="220" as="targetPoint" />
          </mxGeometry>
        </mxCell>
        <mxCell id="a7rIT60RLgpUhXY1kcIQ-41" value="" style="endArrow=none;html=1;rounded=0;entryX=0.083;entryY=0.96;entryDx=0;entryDy=0;entryPerimeter=0;" edge="1" parent="1" target="a7rIT60RLgpUhXY1kcIQ-10">
          <mxGeometry width="50" height="50" relative="1" as="geometry">
            <mxPoint x="87" y="1061.6" as="sourcePoint" />
            <mxPoint x="450" y="370" as="targetPoint" />
          </mxGeometry>
        </mxCell>
        <mxCell id="a7rIT60RLgpUhXY1kcIQ-43" value="" style="endArrow=classic;html=1;rounded=0;entryX=0;entryY=0.5;entryDx=0;entryDy=0;" edge="1" parent="1" target="a7rIT60RLgpUhXY1kcIQ-34">
          <mxGeometry width="50" height="50" relative="1" as="geometry">
            <mxPoint x="90" y="1060" as="sourcePoint" />
            <mxPoint x="450" y="830" as="targetPoint" />
          </mxGeometry>
        </mxCell>
        <mxCell id="a7rIT60RLgpUhXY1kcIQ-44" value="" style="endArrow=classic;html=1;rounded=0;entryX=0;entryY=0.5;entryDx=0;entryDy=0;" edge="1" parent="1" target="a7rIT60RLgpUhXY1kcIQ-12">
          <mxGeometry width="50" height="50" relative="1" as="geometry">
            <mxPoint x="90" y="320" as="sourcePoint" />
            <mxPoint x="450" y="350" as="targetPoint" />
          </mxGeometry>
        </mxCell>
        <mxCell id="a7rIT60RLgpUhXY1kcIQ-45" value="" style="endArrow=classic;html=1;rounded=0;entryX=0;entryY=0.5;entryDx=0;entryDy=0;" edge="1" parent="1">
          <mxGeometry width="50" height="50" relative="1" as="geometry">
            <mxPoint x="90" y="364.6" as="sourcePoint" />
            <mxPoint x="160" y="364.6" as="targetPoint" />
          </mxGeometry>
        </mxCell>
        <mxCell id="a7rIT60RLgpUhXY1kcIQ-46" value="" style="endArrow=classic;html=1;rounded=0;entryX=0;entryY=0.5;entryDx=0;entryDy=0;" edge="1" parent="1">
          <mxGeometry width="50" height="50" relative="1" as="geometry">
            <mxPoint x="90" y="419.6" as="sourcePoint" />
            <mxPoint x="160" y="419.6" as="targetPoint" />
          </mxGeometry>
        </mxCell>
        <mxCell id="a7rIT60RLgpUhXY1kcIQ-47" value="" style="endArrow=classic;html=1;rounded=0;entryX=0;entryY=0.5;entryDx=0;entryDy=0;" edge="1" parent="1">
          <mxGeometry width="50" height="50" relative="1" as="geometry">
            <mxPoint x="90" y="479.6" as="sourcePoint" />
            <mxPoint x="160" y="479.6" as="targetPoint" />
          </mxGeometry>
        </mxCell>
        <mxCell id="a7rIT60RLgpUhXY1kcIQ-48" value="" style="endArrow=none;html=1;rounded=0;" edge="1" parent="1">
          <mxGeometry width="50" height="50" relative="1" as="geometry">
            <mxPoint x="170" y="930" as="sourcePoint" />
            <mxPoint x="170" y="500" as="targetPoint" />
          </mxGeometry>
        </mxCell>
        <mxCell id="a7rIT60RLgpUhXY1kcIQ-49" value="" style="endArrow=classic;html=1;rounded=0;" edge="1" parent="1" target="a7rIT60RLgpUhXY1kcIQ-24">
          <mxGeometry width="50" height="50" relative="1" as="geometry">
            <mxPoint x="170" y="540" as="sourcePoint" />
            <mxPoint x="220" y="490" as="targetPoint" />
          </mxGeometry>
        </mxCell>
        <mxCell id="a7rIT60RLgpUhXY1kcIQ-50" value="" style="endArrow=classic;html=1;rounded=0;" edge="1" parent="1">
          <mxGeometry width="50" height="50" relative="1" as="geometry">
            <mxPoint x="170" y="590" as="sourcePoint" />
            <mxPoint x="190" y="590" as="targetPoint" />
          </mxGeometry>
        </mxCell>
        <mxCell id="a7rIT60RLgpUhXY1kcIQ-52" value="" style="endArrow=classic;html=1;rounded=0;exitX=0.5;exitY=1;exitDx=0;exitDy=0;entryX=0.394;entryY=0.032;entryDx=0;entryDy=0;entryPerimeter=0;" edge="1" parent="1" source="a7rIT60RLgpUhXY1kcIQ-26" target="a7rIT60RLgpUhXY1kcIQ-27">
          <mxGeometry width="50" height="50" relative="1" as="geometry">
            <mxPoint x="400" y="590" as="sourcePoint" />
            <mxPoint x="450" y="540" as="targetPoint" />
          </mxGeometry>
        </mxCell>
        <mxCell id="a7rIT60RLgpUhXY1kcIQ-53" value="" style="endArrow=classic;html=1;rounded=0;exitX=0.5;exitY=1;exitDx=0;exitDy=0;entryX=0.51;entryY=-0.014;entryDx=0;entryDy=0;entryPerimeter=0;" edge="1" parent="1">
          <mxGeometry width="50" height="50" relative="1" as="geometry">
            <mxPoint x="304.81" y="740" as="sourcePoint" />
            <mxPoint x="304.81" y="759" as="targetPoint" />
          </mxGeometry>
        </mxCell>
        <mxCell id="a7rIT60RLgpUhXY1kcIQ-54" value="" style="endArrow=classic;html=1;rounded=0;entryX=0;entryY=0.75;entryDx=0;entryDy=0;" edge="1" parent="1" target="a7rIT60RLgpUhXY1kcIQ-29">
          <mxGeometry width="50" height="50" relative="1" as="geometry">
            <mxPoint x="170" y="783" as="sourcePoint" />
            <mxPoint x="190.15" y="786.2" as="targetPoint" />
          </mxGeometry>
        </mxCell>
        <mxCell id="a7rIT60RLgpUhXY1kcIQ-55" value="" style="endArrow=classic;html=1;rounded=0;entryX=0;entryY=0.75;entryDx=0;entryDy=0;" edge="1" parent="1">
          <mxGeometry width="50" height="50" relative="1" as="geometry">
            <mxPoint x="170" y="825.1" as="sourcePoint" />
            <mxPoint x="213" y="825.1" as="targetPoint" />
          </mxGeometry>
        </mxCell>
        <mxCell id="a7rIT60RLgpUhXY1kcIQ-56" value="" style="endArrow=classic;html=1;rounded=0;entryX=0;entryY=0.75;entryDx=0;entryDy=0;" edge="1" parent="1">
          <mxGeometry width="50" height="50" relative="1" as="geometry">
            <mxPoint x="169.5" y="874.6" as="sourcePoint" />
            <mxPoint x="212.5" y="874.6" as="targetPoint" />
          </mxGeometry>
        </mxCell>
        <mxCell id="a7rIT60RLgpUhXY1kcIQ-57" value="" style="endArrow=classic;html=1;rounded=0;entryX=0;entryY=0.5;entryDx=0;entryDy=0;" edge="1" parent="1" target="a7rIT60RLgpUhXY1kcIQ-33">
          <mxGeometry width="50" height="50" relative="1" as="geometry">
            <mxPoint x="170" y="930" as="sourcePoint" />
            <mxPoint x="203" y="929.6" as="targetPoint" />
          </mxGeometry>
        </mxCell>
        <mxCell id="a7rIT60RLgpUhXY1kcIQ-58" value="" style="endArrow=classic;html=1;rounded=0;entryX=0.479;entryY=-0.016;entryDx=0;entryDy=0;exitX=0.473;exitY=1;exitDx=0;exitDy=0;exitPerimeter=0;entryPerimeter=0;" edge="1" parent="1" source="a7rIT60RLgpUhXY1kcIQ-33" target="a7rIT60RLgpUhXY1kcIQ-32">
          <mxGeometry width="50" height="50" relative="1" as="geometry">
            <mxPoint x="155" y="980" as="sourcePoint" />
            <mxPoint x="198" y="980" as="targetPoint" />
          </mxGeometry>
        </mxCell>
        <mxCell id="a7rIT60RLgpUhXY1kcIQ-59" value="Пользователь получает ответ" style="rounded=0;whiteSpace=wrap;html=1;" vertex="1" parent="1">
          <mxGeometry x="520" y="30" width="270" height="20" as="geometry" />
        </mxCell>
        <mxCell id="a7rIT60RLgpUhXY1kcIQ-60" value="Возвращает ответ пользователю" style="rounded=0;whiteSpace=wrap;html=1;" vertex="1" parent="1">
          <mxGeometry x="520" y="70" width="270" height="20" as="geometry" />
        </mxCell>
        <mxCell id="a7rIT60RLgpUhXY1kcIQ-61" value="Возвращает ответ вебсерверу" style="rounded=0;whiteSpace=wrap;html=1;" vertex="1" parent="1">
          <mxGeometry x="520" y="120" width="270" height="40" as="geometry" />
        </mxCell>
        <mxCell id="a7rIT60RLgpUhXY1kcIQ-62" value="передает ответ через middleware" style="rounded=0;whiteSpace=wrap;html=1;" vertex="1" parent="1">
          <mxGeometry x="520" y="180" width="270" height="20" as="geometry" />
        </mxCell>
        <mxCell id="a7rIT60RLgpUhXY1kcIQ-63" value="" style="endArrow=classic;html=1;rounded=0;entryX=0.518;entryY=1;entryDx=0;entryDy=0;entryPerimeter=0;" edge="1" parent="1" target="a7rIT60RLgpUhXY1kcIQ-61">
          <mxGeometry width="50" height="50" relative="1" as="geometry">
            <mxPoint x="660" y="180" as="sourcePoint" />
            <mxPoint x="710" y="130" as="targetPoint" />
          </mxGeometry>
        </mxCell>
        <mxCell id="a7rIT60RLgpUhXY1kcIQ-64" value="" style="endArrow=classic;html=1;rounded=0;entryX=0.5;entryY=1;entryDx=0;entryDy=0;" edge="1" parent="1" target="a7rIT60RLgpUhXY1kcIQ-60">
          <mxGeometry width="50" height="50" relative="1" as="geometry">
            <mxPoint x="655" y="120" as="sourcePoint" />
            <mxPoint x="655" y="100" as="targetPoint" />
          </mxGeometry>
        </mxCell>
        <mxCell id="a7rIT60RLgpUhXY1kcIQ-65" value="" style="endArrow=classic;html=1;rounded=0;entryX=0.5;entryY=1;entryDx=0;entryDy=0;" edge="1" parent="1" target="a7rIT60RLgpUhXY1kcIQ-59">
          <mxGeometry width="50" height="50" relative="1" as="geometry">
            <mxPoint x="654.86" y="70" as="sourcePoint" />
            <mxPoint x="654.86" y="40" as="targetPoint" />
          </mxGeometry>
        </mxCell>
        <mxCell id="a7rIT60RLgpUhXY1kcIQ-66" value="" style="endArrow=classic;html=1;rounded=0;entryX=0.889;entryY=1.15;entryDx=0;entryDy=0;entryPerimeter=0;exitX=1;exitY=0.75;exitDx=0;exitDy=0;" edge="1" parent="1" source="a7rIT60RLgpUhXY1kcIQ-34" target="a7rIT60RLgpUhXY1kcIQ-62">
          <mxGeometry width="50" height="50" relative="1" as="geometry">
            <mxPoint x="480" y="1070" as="sourcePoint" />
            <mxPoint x="530" y="1020" as="targetPoint" />
            <Array as="points">
              <mxPoint x="760" y="1070" />
            </Array>
          </mxGeometry>
        </mxCell>
        <mxCell id="a7rIT60RLgpUhXY1kcIQ-67" value="&lt;font style=&quot;font-size: 9px;&quot;&gt;Здесь настраиваются анализаторы данных и средств проверки подлинности&amp;nbsp;&lt;br&gt;Синтаксические анализаторы берутся из классов parser_classes, объявленных в классах DEFAULT_PARSER_CLASSES&lt;br&gt;Средства проверки подлинности берутся из authentication_classes, объявленных в представлении или DEFAULT_AUTHENTICATION_CLASSES&lt;/font&gt;" style="shape=callout;whiteSpace=wrap;html=1;perimeter=calloutPerimeter;dashed=1;size=30;position=0;position2=0;base=280;" vertex="1" parent="1">
          <mxGeometry x="460" y="205" width="280" height="125" as="geometry" />
        </mxCell>
        <mxCell id="a7rIT60RLgpUhXY1kcIQ-68" value="" style="endArrow=classic;html=1;rounded=0;entryX=0.001;entryY=0.473;entryDx=0;entryDy=0;entryPerimeter=0;strokeColor=none;" edge="1" parent="1" target="a7rIT60RLgpUhXY1kcIQ-67">
          <mxGeometry width="50" height="50" relative="1" as="geometry">
            <mxPoint x="420" y="320" as="sourcePoint" />
            <mxPoint x="470" y="270" as="targetPoint" />
          </mxGeometry>
        </mxCell>
        <mxCell id="a7rIT60RLgpUhXY1kcIQ-69" value="" style="endArrow=classic;html=1;rounded=0;entryX=0.005;entryY=0.458;entryDx=0;entryDy=0;entryPerimeter=0;dashed=1;" edge="1" parent="1" target="a7rIT60RLgpUhXY1kcIQ-67">
          <mxGeometry width="50" height="50" relative="1" as="geometry">
            <mxPoint x="420" y="320" as="sourcePoint" />
            <mxPoint x="470" y="270" as="targetPoint" />
          </mxGeometry>
        </mxCell>
        <mxCell id="a7rIT60RLgpUhXY1kcIQ-71" value="&lt;font style=&quot;font-size: 8px;&quot;&gt;здесь оцениваются средства проверки подлинности. Если аутентификация завершается неудачно request.user присваивается экземпляр AnonimousUser&lt;/font&gt;" style="rounded=1;whiteSpace=wrap;html=1;dashed=1;" vertex="1" parent="1">
          <mxGeometry x="460" y="340" width="280" height="50" as="geometry" />
        </mxCell>
        <mxCell id="a7rIT60RLgpUhXY1kcIQ-72" value="" style="endArrow=classic;html=1;rounded=0;dashed=1;" edge="1" parent="1">
          <mxGeometry width="50" height="50" relative="1" as="geometry">
            <mxPoint x="417.5" y="380" as="sourcePoint" />
            <mxPoint x="459" y="360" as="targetPoint" />
          </mxGeometry>
        </mxCell>
        <mxCell id="a7rIT60RLgpUhXY1kcIQ-73" value="&lt;font style=&quot;font-size: 8px;&quot;&gt;Разрешения исходят из классов permission_classes, объявленных в представлении или DEFAULT_PERMISSION_CLASSES&lt;br&gt;Если проверка завершается неудачей, вызывается NotAuthenticated 401 для анонимных пользователей, для остальных PermissinDenied 403&lt;br&gt;&lt;/font&gt;" style="rounded=1;whiteSpace=wrap;html=1;dashed=1;" vertex="1" parent="1">
          <mxGeometry x="460" y="400" width="280" height="60" as="geometry" />
        </mxCell>
        <mxCell id="a7rIT60RLgpUhXY1kcIQ-74" value="" style="endArrow=classic;html=1;rounded=0;dashed=1;entryX=0;entryY=0.5;entryDx=0;entryDy=0;" edge="1" parent="1" target="a7rIT60RLgpUhXY1kcIQ-73">
          <mxGeometry width="50" height="50" relative="1" as="geometry">
            <mxPoint x="420" y="420" as="sourcePoint" />
            <mxPoint x="461.5" y="400" as="targetPoint" />
          </mxGeometry>
        </mxCell>
        <mxCell id="a7rIT60RLgpUhXY1kcIQ-75" value="&lt;font style=&quot;font-size: 8px;&quot;&gt;Именно здесь выполняются функции list(), create(), retrieve(). Вызываются функции update(), destroy()&lt;br&gt;Если подходящий обработчик не найден, вызывается MethodNotAllowed 405&lt;br&gt;&lt;/font&gt;" style="rounded=1;whiteSpace=wrap;html=1;dashed=1;" vertex="1" parent="1">
          <mxGeometry x="460" y="470" width="280" height="60" as="geometry" />
        </mxCell>
        <mxCell id="a7rIT60RLgpUhXY1kcIQ-76" value="" style="endArrow=classic;html=1;rounded=0;dashed=1;entryX=0;entryY=0.5;entryDx=0;entryDy=0;" edge="1" parent="1">
          <mxGeometry width="50" height="50" relative="1" as="geometry">
            <mxPoint x="420" y="480" as="sourcePoint" />
            <mxPoint x="460" y="490" as="targetPoint" />
          </mxGeometry>
        </mxCell>
        <mxCell id="a7rIT60RLgpUhXY1kcIQ-77" value="&lt;font style=&quot;font-size: 8px;&quot;&gt;функция get_object() вызывается только на update(), retrieve(), destroy(), там где указан параметр pk, get_object() проверяет права пользователя на объект модели с check_object_permissions()&lt;br&gt;&lt;/font&gt;" style="rounded=1;whiteSpace=wrap;html=1;dashed=1;" vertex="1" parent="1">
          <mxGeometry x="460" y="540" width="280" height="60" as="geometry" />
        </mxCell>
        <mxCell id="a7rIT60RLgpUhXY1kcIQ-78" value="" style="endArrow=classic;html=1;rounded=0;dashed=1;entryX=0;entryY=0.5;entryDx=0;entryDy=0;" edge="1" parent="1">
          <mxGeometry width="50" height="50" relative="1" as="geometry">
            <mxPoint x="417.5" y="545" as="sourcePoint" />
            <mxPoint x="457.5" y="555" as="targetPoint" />
          </mxGeometry>
        </mxCell>
        <mxCell id="a7rIT60RLgpUhXY1kcIQ-79" value="&lt;font style=&quot;font-size: 8px;&quot;&gt;происходит проверка / сериализация&lt;br&gt;&lt;/font&gt;" style="rounded=1;whiteSpace=wrap;html=1;dashed=1;" vertex="1" parent="1">
          <mxGeometry x="460" y="610" width="280" height="20" as="geometry" />
        </mxCell>
        <mxCell id="a7rIT60RLgpUhXY1kcIQ-80" value="" style="endArrow=classic;html=1;rounded=0;dashed=1;entryX=0;entryY=0.5;entryDx=0;entryDy=0;" edge="1" parent="1">
          <mxGeometry width="50" height="50" relative="1" as="geometry">
            <mxPoint x="420" y="600" as="sourcePoint" />
            <mxPoint x="460" y="610" as="targetPoint" />
          </mxGeometry>
        </mxCell>
        <mxCell id="a7rIT60RLgpUhXY1kcIQ-81" value="&lt;font style=&quot;font-size: 8px;&quot;&gt;Здесь происходит проверка данных. Вызывается только в create() и update(). Если проверка завершается неудачей возникает ValidationError 400&lt;br&gt;&lt;/font&gt;" style="rounded=1;whiteSpace=wrap;html=1;dashed=1;" vertex="1" parent="1">
          <mxGeometry x="490" y="640" width="250" height="50" as="geometry" />
        </mxCell>
        <mxCell id="a7rIT60RLgpUhXY1kcIQ-82" value="" style="endArrow=classic;html=1;rounded=0;dashed=1;entryX=-0.003;entryY=0.418;entryDx=0;entryDy=0;entryPerimeter=0;" edge="1" parent="1" target="a7rIT60RLgpUhXY1kcIQ-81">
          <mxGeometry width="50" height="50" relative="1" as="geometry">
            <mxPoint x="420" y="650" as="sourcePoint" />
            <mxPoint x="460" y="660" as="targetPoint" />
          </mxGeometry>
        </mxCell>
        <mxCell id="a7rIT60RLgpUhXY1kcIQ-83" value="&lt;font style=&quot;font-size: 8px;&quot;&gt;Доступ к свойству .data недоступен в destroy&lt;br&gt;&lt;/font&gt;" style="rounded=1;whiteSpace=wrap;html=1;dashed=1;" vertex="1" parent="1">
          <mxGeometry x="550" y="915" width="190" height="30" as="geometry" />
        </mxCell>
        <mxCell id="a7rIT60RLgpUhXY1kcIQ-84" value="" style="endArrow=classic;html=1;rounded=0;dashed=1;entryX=0;entryY=0.5;entryDx=0;entryDy=0;" edge="1" parent="1" target="a7rIT60RLgpUhXY1kcIQ-83">
          <mxGeometry width="50" height="50" relative="1" as="geometry">
            <mxPoint x="472.5" y="924.55" as="sourcePoint" />
            <mxPoint x="541.5" y="935.55" as="targetPoint" />
          </mxGeometry>
        </mxCell>
        <mxCell id="a7rIT60RLgpUhXY1kcIQ-85" value="&lt;font style=&quot;font-size: 8px;&quot;&gt;Здесь модель объекта конвертируется в python-словарь для сериализации&lt;br&gt;&lt;/font&gt;" style="rounded=1;whiteSpace=wrap;html=1;dashed=1;" vertex="1" parent="1">
          <mxGeometry x="550" y="980" width="190" height="30" as="geometry" />
        </mxCell>
        <mxCell id="a7rIT60RLgpUhXY1kcIQ-86" value="" style="endArrow=classic;html=1;rounded=0;dashed=1;entryX=0;entryY=0.5;entryDx=0;entryDy=0;" edge="1" parent="1">
          <mxGeometry width="50" height="50" relative="1" as="geometry">
            <mxPoint x="472.5" y="992.27" as="sourcePoint" />
            <mxPoint x="550" y="997.72" as="targetPoint" />
          </mxGeometry>
        </mxCell>
      </root>
    </mxGraphModel>
  </diagram>
</mxfile>
